name Walk10.mot
datacolumns 19
datarows 30
range 1.69000000 1.83500000
endheader

                time	   L_ground_force_vx	   L_ground_force_vy	   L_ground_force_vz	   L_ground_force_px	   L_ground_force_py	   L_ground_force_pz	   R_ground_force_vx	   R_ground_force_vy	   R_ground_force_vz	   R_ground_force_px	   R_ground_force_py	   R_ground_force_pz	   L_ground_torque_x	   L_ground_torque_y	   L_ground_torque_z	   R_ground_torque_x	   R_ground_torque_y	   R_ground_torque_z	
          1.69000000	         -0.19477251	        694.64346213	         39.84355486	         -0.14857949	          0.00000000	         -0.05746097	         -0.08108787	          0.50337011	          0.02019255	         -0.00002517	          0.00000000	         -0.00001672	          0.00000000	          1.65884431	          0.00000000	          0.00000000	          0.01204577	          0.00000000	
          1.69500000	          2.60892512	        706.49957771	         39.75993898	         -0.14694357	          0.00000000	         -0.05742017	         -0.08074496	          0.16642413	          0.00305187	         -0.00026731	          0.00000000	         -0.00009930	          0.00000000	          1.67920068	          0.00000000	          0.00000000	          0.01444833	          0.00000000	
          1.70000000	          5.91011513	        718.45936646	         39.63109287	         -0.14546152	          0.00000000	         -0.05737120	         -0.07025211	         -0.37952737	         -0.02405335	         -0.00061193	          0.00000000	         -0.00021582	          0.00000000	          1.69418928	          0.00000000	          0.00000000	          0.01641295	          0.00000000	
          1.70500000	          9.70950230	        730.38516588	         39.44447553	         -0.14412691	          0.00000000	         -0.05731221	         -0.04522572	         -1.18406667	         -0.06335422	         -0.00107387	          0.00000000	         -0.00037091	          0.00000000	          1.70253859	          0.00000000	          0.00000000	          0.01745236	          0.00000000	
          1.71000000	         13.99418246	        742.12836256	         39.18814107	         -0.14293077	          0.00000000	         -0.05724062	         -0.00062247	         -2.29262027	         -0.11682584	         -0.00166176	          0.00000000	         -0.00056701	          0.00000000	          1.70254774	          0.00000000	          0.00000000	          0.01692082	          0.00000000	
          1.71500000	         18.73559760	        753.52988633	         38.85191710	         -0.14186103	          0.00000000	         -0.05715374	          0.06900770	         -3.73853180	         -0.18580051	         -0.00237356	          0.00000000	         -0.00080287	          0.00000000	          1.69243500	          0.00000000	          0.00000000	          0.01400515	          0.00000000	
          1.72000000	         23.88643837	        764.42343032	         38.42775953	         -0.14090167	          0.00000000	         -0.05704956	          0.16907699	         -5.53219096	         -0.27044378	         -0.00319081	          0.00000000	         -0.00107165	          0.00000000	          1.67078408	          0.00000000	          0.00000000	          0.00773128	          0.00000000	
          1.72500000	         29.38025991	        774.63857838	         37.90900982	         -0.14003339	          0.00000000	         -0.05692697	          0.30427107	         -7.64691216	         -0.36908146	         -0.00407169	          0.00000000	         -0.00135862	          0.00000000	          1.63613798	          0.00000000	          0.00000000	         -0.00300556	          0.00000000	
          1.73000000	         35.13189867	        784.00602879	         37.29097008	         -0.13923477	          0.00000000	         -0.05678461	          0.47756480	        -10.00148651	         -0.47737696	         -0.00494317	          0.00000000	         -0.00163856	          0.00000000	          1.58690721	          0.00000000	          0.00000000	         -0.01937768	          0.00000000	
          1.73500000	         41.03900364	        792.36415101	         36.57522513	         -0.13848413	          0.00000000	         -0.05661971	          0.68889839	        -12.43969783	         -0.58737678	         -0.00569249	          0.00000000	         -0.00187301	          0.00000000	          1.52239017	          0.00000000	          0.00000000	         -0.04251824	          0.00000000	
          1.74000000	         46.99143093	        799.56313878	         35.77208561	         -0.13776087	          0.00000000	         -0.05642932	          0.93348718	        -14.70763105	         -0.68646821	         -0.00615894	          0.00000000	         -0.00200761	          0.00000000	          1.44347621	          0.00000000	          0.00000000	         -0.07335945	          0.00000000	
          1.74500000	         52.88734161	        805.46461051	         34.89771749	         -0.13704665	          0.00000000	         -0.05621117	          1.19976879	        -16.43033620	         -0.75632858	         -0.00612673	          0.00000000	         -0.00196991	          0.00000000	          1.35224985	          0.00000000	          0.00000000	         -0.11240534	          0.00000000	
          1.75000000	         58.64887290	        809.93770876	         33.97164778	         -0.13632749	          0.00000000	         -0.05596381	          1.46703776	        -17.09036583	         -0.77199087	         -0.00532090	          0.00000000	         -0.00166817	          0.00000000	          1.25155285	          0.00000000	          0.00000000	         -0.15942997	          0.00000000	
          1.75500000	         64.23180464	        812.85073963	         33.01514139	         -0.13559478	          0.00000000	         -0.05568671	          1.70288461	        -16.01188064	         -0.70120617	         -0.00340810	          0.00000000	         -0.00099192	          0.00000000	          1.14483533	          0.00000000	          0.00000000	         -0.21309702	          0.00000000	
          1.76000000	         69.62512025	        814.06574793	         32.04893590	         -0.13484569	          0.00000000	         -0.05538057	          1.86064591	        -12.35539821	         -0.50434754	         -0.00000500	          0.00000000	          0.00018495	          0.00000000	          1.03604235	          0.00000000	          0.00000000	         -0.27050350	          0.00000000	
          1.76500000	         74.84364216	        813.43313963	         31.08925227	         -0.13408281	          0.00000000	         -0.05504752	          1.87718581	         -5.12978616	         -0.13516996	          0.00530234	          0.00000000	          0.00199733	          0.00000000	          0.92919424	          0.00000000	          0.00000000	         -0.32666131	          0.00000000	
          1.77000000	         79.91791748	        810.78505743	         30.14576827	         -0.13331233	          0.00000000	         -0.05469033	          1.67146805	          6.77033334	          0.45718831	          0.01292457	          0.00000000	          0.00457718	          0.00000000	          0.82805309	          0.00000000	          0.00000000	         -0.37394615	          0.00000000	
          1.77500000	         84.88237863	        805.92960871	         29.22040699	         -0.13254247	          0.00000000	         -0.05431301	          1.14453702	         24.49216602	          1.32451562	          0.02321656	          0.00000000	          0.00803566	          0.00000000	          0.73610447	          0.00000000	          0.00000000	         -0.40156312	          0.00000000	
          1.78000000	         89.76370059	        798.64488535	         28.30561452	         -0.13178289	          0.00000000	         -0.05392026	          0.18169791	         49.10666053	          2.51365826	          0.03640243	          0.00000000	          0.01243771	          0.00000000	          0.65683653	          0.00000000	          0.00000000	         -0.39510444	          0.00000000	
          1.78500000	         94.57461435	        788.67671277	         27.38492591	         -0.13104417	          0.00000000	         -0.05351713	         -1.34214233	         81.43377367	          4.05797852	          0.05247476	          0.00000000	          0.01776827	          0.00000000	          0.59331745	          0.00000000	          0.00000000	         -0.33630544	          0.00000000	
          1.79000000	         99.30904017	        775.73734819	         26.43250729	         -0.13033668	          0.00000000	         -0.05310829	         -3.55286404	        121.80094702	          5.96569750	          0.07106602	          0.00000000	          0.02388931	          0.00000000	          0.54748163	          0.00000000	          0.00000000	         -0.20313957	          0.00000000	
          1.79500000	        103.93023835	        759.50651922	         25.41288648	         -0.12966847	          0.00000000	         -0.05269646	         -6.56205237	        169.72723527	          8.20481835	          0.09129257	          0.00000000	          0.03048816	          0.00000000	          0.51969171	          0.00000000	          0.00000000	          0.02956949	          0.00000000	
          1.80000000	        108.35422409	        739.64642473	         24.28118699	         -0.12904319	          0.00000000	         -0.05228143	        -10.44655921	        223.55167737	         10.68478349	          0.11168419	          0.00000000	          0.03705541	          0.00000000	          0.50829735	          0.00000000	          0.00000000	          0.38894150	          0.00000000	
          1.80500000	        112.43338051	        715.83047957	         22.98559944	         -0.12845599	          0.00000000	         -0.05185935	        -15.22815605	        280.40584177	         13.23058305	          0.13082080	          0.00000000	          0.04310478	          0.00000000	          0.50987363	          0.00000000	          0.00000000	          0.90353234	          0.00000000	
          1.81000000	        115.94723203	        687.79235327	         21.47569264	         -0.12789077	          0.00000000	         -0.05142324	        -20.82478137	        337.29819875	         15.54479797	          0.14786590	          0.00000000	          0.04836535	          0.00000000	          0.52009392	          0.00000000	          0.00000000	          1.59908204	          0.00000000	
          1.81500000	        118.62005945	        655.38071821	         19.71157341	         -0.12731817	          0.00000000	         -0.05096266	        -26.99275837	        392.13333473	         17.24783997	          0.16246473	          0.00000000	          0.05274792	          0.00000000	          0.53414761	          0.00000000	          0.00000000	          2.48185185	          0.00000000	
          1.82000000	        120.15297266	        618.60701226	         17.67160153	         -0.12669366	          0.00000000	         -0.05046379	        -33.36321527	        443.67579183	         17.99563832	          0.17458685	          0.00000000	          0.05628081	          0.00000000	          0.54718446	          0.00000000	          0.00000000	          3.52969983	          0.00000000	
          1.82500000	        120.25419717	        577.67983470	         15.35927410	         -0.12595486	          0.00000000	         -0.04991017	        -39.55190651	        491.36987498	         17.56170969	          0.18440589	          0.00000000	          0.05905660	          0.00000000	          0.55479973	          0.00000000	          0.00000000	          4.70163156	          0.00000000	
          1.83000000	        118.66915024	        533.01860073	         12.81060769	         -0.12501770	          0.00000000	         -0.04928211	        -45.28877267	        535.20793677	         15.87036226	          0.19221703	          0.00000000	          0.06119576	          0.00000000	          0.55300343	          0.00000000	          0.00000000	          5.95683109	          0.00000000	
          1.83500000	        115.21187044	        485.25132271	         10.09842511	         -0.12377490	          0.00000000	         -0.04855471	        -50.48548062	        575.52791525	         12.98805509	          0.19837080	          0.00000000	          0.06282172	          0.00000000	          0.53918340	          0.00000000	          0.00000000	          7.26794174	          0.00000000	
